<?xml version="1.0" encoding="UTF-8"?>
<svg xmlns="http://www.w3.org/2000/svg" xmlns:xlink="http://www.w3.org/1999/xlink"
     width="700" height="600" viewBox="0 0 700 600">
<defs>
</defs>
<text x="90" y="540" font-size="20" text-anchor="end" dominant-baseline="middle" stroke="none" fill="#555555">0.0s</text>
<path d="M100,540 L600,540" stroke="#666666" />
<path d="M100,490 L600,490" stroke="#AAAAAA " />
<text x="90" y="440" font-size="20" text-anchor="end" dominant-baseline="middle" stroke="none" fill="#555555">33.33s</text>
<path d="M100,440 L600,440" stroke="#666666" />
<path d="M100,390 L600,390" stroke="#AAAAAA " />
<text x="90" y="340" font-size="20" text-anchor="end" dominant-baseline="middle" stroke="none" fill="#555555">66.67s</text>
<path d="M100,340 L600,340" stroke="#666666" />
<path d="M100,290 L600,290" stroke="#AAAAAA " />
<text x="90" y="240" font-size="20" text-anchor="end" dominant-baseline="middle" stroke="none" fill="#555555">100.0s</text>
<path d="M100,240 L600,240" stroke="#666666" />
<path d="M100,190 L600,190" stroke="#AAAAAA " />
<text x="90" y="140" font-size="20" text-anchor="end" dominant-baseline="middle" stroke="none" fill="#555555">133.33s</text>
<path d="M100,140 L600,140" stroke="#666666" />
<path d="M100,90 L600,90" stroke="#AAAAAA " />
<text x="90" y="40" font-size="20" text-anchor="end" dominant-baseline="middle" stroke="none" fill="#555555">166.67s</text>
<path d="M100,40 L600,40" stroke="#666666" />
<text x="183.33333333333331" y="555" font-size="24" text-anchor="middle" dominant-baseline="hanging" font-family="serif" font-weight="lighter">VM</text>
<text x="350.0" y="555" font-size="24" text-anchor="middle" dominant-baseline="hanging" font-family="serif" font-weight="lighter">JVM</text>
<text x="516.6666666666666" y="555" font-size="24" text-anchor="middle" dominant-baseline="hanging" font-family="serif" font-weight="lighter">NodeJS</text>
<rect x="122.33333333333331" y="480.2694" width="16" height="59.730599999999995" fill="#DAE8FC" stroke="#6C8EBF" stroke-width="1" />
<rect x="142.33333333333331" y="510.5322" width="16" height="29.467799999999997" fill="#FFE6CC" stroke="#D6B656" stroke-width="1" />
<rect x="162.33333333333331" y="493.878" width="16" height="46.122" fill="#FFF2CC" stroke="#D79B00" stroke-width="1" />
<rect x="182.33333333333331" y="513.891" width="16" height="26.108999999999998" fill="#E1D5E7" stroke="#9673A6" stroke-width="1" />
<rect x="202.33333333333331" y="496.11" width="16" height="43.89" fill="#D5E8D4" stroke="#82B366" stroke-width="1" />
<rect x="222.33333333333331" y="502.9242" width="16" height="37.0758" fill="#F8CECC" stroke="#B85450" stroke-width="1" />
<rect x="289.0" y="473.29740000000004" width="16" height="66.70259999999999" fill="#DAE8FC" stroke="#6C8EBF" stroke-width="1" />
<rect x="309.0" y="509.3454" width="16" height="30.6546" fill="#FFE6CC" stroke="#D6B656" stroke-width="1" />
<rect x="329.0" y="489.1842" width="16" height="50.8158" fill="#FFF2CC" stroke="#D79B00" stroke-width="1" />
<rect x="349.0" y="510.3144" width="16" height="29.685599999999997" fill="#E1D5E7" stroke="#9673A6" stroke-width="1" />
<rect x="369.0" y="500.1306" width="16" height="39.8694" fill="#D5E8D4" stroke="#82B366" stroke-width="1" />
<rect x="389.0" y="501.0696" width="16" height="38.930400000000006" fill="#F8CECC" stroke="#B85450" stroke-width="1" />
<rect x="455.66666666666663" y="169.16219999999998" width="16" height="370.8378" fill="#DAE8FC" stroke="#6C8EBF" stroke-width="1" />
<rect x="475.66666666666663" y="329.2914" width="16" height="210.7086" fill="#FFE6CC" stroke="#D6B656" stroke-width="1" />
<rect x="495.66666666666663" y="260.92560000000003" width="16" height="279.07439999999997" fill="#FFF2CC" stroke="#D79B00" stroke-width="1" />
<rect x="515.6666666666666" y="324.80460000000005" width="16" height="215.19539999999998" fill="#E1D5E7" stroke="#9673A6" stroke-width="1" />
<rect x="535.6666666666666" y="226.9434" width="16" height="313.0566" fill="#D5E8D4" stroke="#82B366" stroke-width="1" />
<rect x="555.6666666666666" y="249.9792" width="16" height="290.0208" fill="#F8CECC" stroke="#B85450" stroke-width="1" />
</svg>