<?xml version="1.0" encoding="UTF-8"?>
<svg xmlns="http://www.w3.org/2000/svg" xmlns:xlink="http://www.w3.org/1999/xlink"
     width="700" height="600" viewBox="0 0 700 600">
<defs>
</defs>
<text x="90" y="540" font-size="20" text-anchor="end" dominant-baseline="middle" stroke="none" fill="#555555">0.0s</text>
<path d="M100,540 L600,540" stroke="#666666" />
<path d="M100,490 L600,490" stroke="#AAAAAA " />
<text x="90" y="440" font-size="20" text-anchor="end" dominant-baseline="middle" stroke="none" fill="#555555">6.67s</text>
<path d="M100,440 L600,440" stroke="#666666" />
<path d="M100,390 L600,390" stroke="#AAAAAA " />
<text x="90" y="340" font-size="20" text-anchor="end" dominant-baseline="middle" stroke="none" fill="#555555">13.33s</text>
<path d="M100,340 L600,340" stroke="#666666" />
<path d="M100,290 L600,290" stroke="#AAAAAA " />
<text x="90" y="240" font-size="20" text-anchor="end" dominant-baseline="middle" stroke="none" fill="#555555">20.0s</text>
<path d="M100,240 L600,240" stroke="#666666" />
<path d="M100,190 L600,190" stroke="#AAAAAA " />
<text x="90" y="140" font-size="20" text-anchor="end" dominant-baseline="middle" stroke="none" fill="#555555">26.67s</text>
<path d="M100,140 L600,140" stroke="#666666" />
<path d="M100,90 L600,90" stroke="#AAAAAA " />
<text x="90" y="40" font-size="20" text-anchor="end" dominant-baseline="middle" stroke="none" fill="#555555">33.33s</text>
<path d="M100,40 L600,40" stroke="#666666" />
<text x="183.33333333333331" y="555" font-size="24" text-anchor="middle" dominant-baseline="hanging" font-family="serif" font-weight="lighter">RiftVM</text>
<text x="350.0" y="555" font-size="24" text-anchor="middle" dominant-baseline="hanging" font-family="serif" font-weight="lighter">C++ GDB</text>
<text x="516.6666666666666" y="555" font-size="24" text-anchor="middle" dominant-baseline="hanging" font-family="serif" font-weight="lighter">C++ Valgrind</text>
<rect x="122.33333333333331" y="391.57500000000005" width="16" height="148.42499999999998" fill="#DAE8FC" stroke="#6C8EBF" stroke-width="1" />
<rect x="142.33333333333331" y="459.06" width="16" height="80.94" fill="#FFE6CC" stroke="#D6B656" stroke-width="1" />
<rect x="162.33333333333331" y="426.111" width="16" height="113.889" fill="#FFF2CC" stroke="#D79B00" stroke-width="1" />
<rect x="182.33333333333331" y="460.905" width="16" height="79.09500000000001" fill="#E1D5E7" stroke="#9673A6" stroke-width="1" />
<rect x="202.33333333333331" y="421.587" width="16" height="118.413" fill="#D5E8D4" stroke="#82B366" stroke-width="1" />
<rect x="222.33333333333331" y="326.862" width="16" height="213.13799999999998" fill="#F8CECC" stroke="#B85450" stroke-width="1" />
<rect x="289.0" y="520.695" width="16" height="19.305000000000003" fill="#DAE8FC" stroke="#6C8EBF" stroke-width="1" />
<rect x="309.0" y="521.514" width="16" height="18.486" fill="#FFE6CC" stroke="#D6B656" stroke-width="1" />
<rect x="329.0" y="525.54" width="16" height="14.46" fill="#FFF2CC" stroke="#D79B00" stroke-width="1" />
<rect x="349.0" y="526.98" width="16" height="13.02" fill="#E1D5E7" stroke="#9673A6" stroke-width="1" />
<rect x="369.0" y="525.081" width="16" height="14.918999999999999" fill="#D5E8D4" stroke="#82B366" stroke-width="1" />
<rect x="389.0" y="525.963" width="16" height="14.037" fill="#F8CECC" stroke="#B85450" stroke-width="1" />
<rect x="455.66666666666663" y="94.269" width="16" height="445.731" fill="#DAE8FC" stroke="#6C8EBF" stroke-width="1" />
<rect x="475.66666666666663" y="301.209" width="16" height="238.791" fill="#FFE6CC" stroke="#D6B656" stroke-width="1" />
<rect x="495.66666666666663" y="185.36999999999995" width="16" height="354.63000000000005" fill="#FFF2CC" stroke="#D79B00" stroke-width="1" />
<rect x="515.6666666666666" y="302.142" width="16" height="237.858" fill="#E1D5E7" stroke="#9673A6" stroke-width="1" />
<rect x="535.6666666666666" y="185.238" width="16" height="354.762" fill="#D5E8D4" stroke="#82B366" stroke-width="1" />
<rect x="555.6666666666666" y="218.11200000000002" width="16" height="321.888" fill="#F8CECC" stroke="#B85450" stroke-width="1" />
</svg>